<svg xmlns="http://www.w3.org/2000/svg" width="1265.3" height="948.4"><defs><radialGradient id="a" cx=".5" cy=".5" r=".5" gradientUnits="objectBoundingBox"><stop offset="0" stop-color="#fe6dd1" stop-opacity=".5"/><stop offset="1" stop-color="#f7ec59" stop-opacity="0"/></radialGradient></defs><path data-name="Path 14" d="M915 26l-59 12q-29 7-57 16a835 835 0 00-110 44 763 763 0 00-99 57 647 647 0 00-88 72 505 505 0 00-71 88 376 376 0 00-46 104 299 299 0 00-10 46 348 348 0 00-5 51 340 340 0 003 58 365 365 0 0012 55 374 374 0 0020 53 419 419 0 0028 49 448 448 0 0033 44 482 482 0 0038 40 530 530 0 00192 115 626 626 0 00113 28 758 758 0 00180 4 979 979 0 00120-17q29-5 57-12a1004 1004 0 00171-10 509 509 0 0056-13 479 479 0 0054-18l25-12 25-14a339 339 0 0045-34 260 260 0 0019-18 247 247 0 0018-22 278 278 0 0027-49l10-25a261 261 0 009-28c4-19 7-38 8-57a431 431 0 001-59 512 512 0 00-6-59 520 520 0 00-13-56l-5-16-2-8c-5-19-12-37-19-55a443 443 0 00-26-52 481 481 0 00-33-47 683 683 0 00-77-84 728 728 0 00-90-71 709 709 0 00-100-56 519 519 0 00-229-54h-9a672 672 0 00-110 10zm183 13q18 2 34 6c12 2 23 5 35 9a637 637 0 0168 24 715 715 0 01159 92 714 714 0 0165 57q17 17 32 35c-11-10-23-20-36-29a507 507 0 00-47-31 700 700 0 00-105-50 896 896 0 00-113-38l-58-13-60-10a540 540 0 00-59-4 623 623 0 00-177 22c-20 5-39 12-57 18l-14 5-38 5a397 397 0 00-56 13 455 455 0 00-54 20 447 447 0 00-50 27l-10 6 15-12c51-39 107-70 166-95l48-18c17-6 34-12 52-16a812 812 0 01104-22c52-7 105-8 156-1zm-154 1h-1 1zm55 66a553 553 0 0179 4l58 10 58 14a902 902 0 01115 40l-2-1c26 11 52 23 77 37q20 10 38 22a508 508 0 01109 97c21 28 38 58 52 90l10 29 5 24a330 330 0 010 83 309 309 0 01-9 40 337 337 0 01-13 39 383 383 0 01-21 42 367 367 0 01-26 38l-13 16a199 199 0 0017-69 176 176 0 00-4-52c-4-16-10-30-16-44l2-12a250 250 0 006-56 214 214 0 00-2-26 270 270 0 00-6-28 291 291 0 00-18-51 261 261 0 00-28-46 403 403 0 00-37-42 437 437 0 00-40-37 544 544 0 00-204-100 670 670 0 00-117-22 472 472 0 00-58-1 540 540 0 00-59 5l-11 2c-32-9-64-15-97-18l-19-2c30-9 62-15 94-19a686 686 0 0180-6zm-136 45l40 7a663 663 0 00-65 19 695 695 0 00-107 47 633 633 0 00-94 63 480 480 0 00-42 37 462 462 0 00-36 42 448 448 0 00-31 46 399 399 0 00-25 50 381 381 0 00-18 54 355 355 0 00-9 56c-3 37 0 75 11 111l3 10-10-9a391 391 0 01-33-38c-14-18-27-38-36-59a257 257 0 01-16-61 281 281 0 01-2-31 231 231 0 011-33 307 307 0 017-32 362 362 0 0112-35 400 400 0 0150-84 426 426 0 0134-39 442 442 0 0141-36 432 432 0 01148-74l17-5-34 17-14 7-9 5-45 24-20 11-23 13a9 9 0 009 16l14-8 14-7 28-15 38-21 24-12a774 774 0 0189-39h2a479 479 0 0187 3zm162 11a501 501 0 0166 5 667 667 0 01165 44 599 599 0 0163 31 507 507 0 0156 38 450 450 0 0139 34 404 404 0 0135 39 304 304 0 0118 28 248 248 0 0115 29 275 275 0 0118 65 222 222 0 012 27 219 219 0 01-2 28l-1 8-4-7-15-24-10-13-3-8c-8-17-17-33-28-49a440 440 0 00-34-43 410 410 0 00-40-39l-44-34q-23-16-48-30a602 602 0 00-106-47l-16-5c-27-15-54-29-82-42l-54-23-28-10 38-2zm-78 7h1q22 6 43 14a726 726 0 0194 40l-32-5a545 545 0 00-176 8 518 518 0 00-55 15 530 530 0 00-104 47 486 486 0 00-47 31 426 426 0 00-42 37 401 401 0 00-37 41 362 362 0 00-30 47 317 317 0 00-22 52 329 329 0 00-13 55 318 318 0 00-4 56 337 337 0 007 58 311 311 0 0016 53l13 28-37-26-8-18a281 281 0 01-11-30 239 239 0 01-6-32 337 337 0 010-84 370 370 0 0125-91 397 397 0 0123-45 430 430 0 0129-43 476 476 0 0139-44 493 493 0 0145-39 655 655 0 01289-125zm111 68a587 587 0 0192 21l26 15 70 45 46 34-24-10c-17-8-35-14-53-19l-26-8q-29-13-59-23a668 668 0 00-114-29c-39-7-79-10-119-8a466 466 0 00-57 6 410 410 0 00-56 14l-2 1 7-3a549 549 0 0162-22 506 506 0 0167-14 541 541 0 01140 0zm-166 35a464 464 0 0170 1 623 623 0 00-105 7 454 454 0 00-109 31 280 280 0 00-47 26 260 260 0 00-5 2 320 320 0 0166-38c32-13 65-21 99-26l31-3zm54 20a672 672 0 00-84 12q-28 6-56 15a498 498 0 00-54 20 462 462 0 00-48 25l-26 16a218 218 0 0149-37 292 292 0 0130-15 463 463 0 0155-18 474 474 0 0160-13 611 611 0 0174-5zm460 133a1036 1036 0 00-135-109l-30-21q16 7 31 16a587 587 0 0162 42 485 485 0 0141 36 414 414 0 0137 41l1 1-1-1-6-5zm-309-109q28 3 56 9l29 12a503 503 0 0149 24 392 392 0 0146 30l6 5a695 695 0 00-84-31c-38-12-77-21-116-27a903 903 0 00-120-10q-30-1-60 1l-58 8a497 497 0 00-56 13 391 391 0 00-52 20 343 343 0 00-49 27 386 386 0 0133-21 465 465 0 0147-23c45-19 94-31 142-38 62-8 125-8 187 1zm85 21h2-2zm-485 1v0zm223 9l48-1a882 882 0 0195 8 831 831 0 01104 21l51 15q24 8 47 18a501 501 0 0151 25l8 5v1a242 242 0 0129 48 182 182 0 0113 45 186 186 0 010 46 171 171 0 01-11 38 176 176 0 01-20 35 192 192 0 01-32 32 313 313 0 01-28 18 250 250 0 01-30 15c-21 9-43 16-66 22a585 585 0 01-73 14 793 793 0 01-93 7l-46-1-45-5a506 506 0 01-57-11 387 387 0 01-53-18c-20-8-39-18-56-32a218 218 0 01-36-35 144 144 0 01-17-28l-3-11a162 162 0 0017 21 160 160 0 0020 16 228 228 0 0023 14 396 396 0 0050 23 474 474 0 0055 17l58 11a661 661 0 00120 6l60-6a576 576 0 0057-10 391 391 0 00103-43 200 200 0 0021-15 204 204 0 0020-20 155 155 0 0016-21 117 117 0 0011-24 129 129 0 006-25 115 115 0 000-27c-1-18-8-34-17-50a176 176 0 00-15-21 146 146 0 00-19-18c-13-12-28-21-44-30a364 364 0 00-49-22 430 430 0 00-55-15 611 611 0 00-119-14 574 574 0 00-59 3l-18 2h-16c-39 3-77 10-113 22a292 292 0 00-51 23 224 224 0 00-44 33 173 173 0 00-16 19 154 154 0 00-15 24 117 117 0 00-9 24 100 100 0 00-3 13 136 136 0 00-1 15 124 124 0 002 19 143 143 0 00-1 20 164 164 0 002 25 134 134 0 007 26c7 17 17 32 29 45a221 221 0 0040 36c15 11 31 19 48 26a410 410 0 0052 19 455 455 0 0057 12 696 696 0 00296-21 454 454 0 0053-19 270 270 0 0047-27c14-11 28-22 40-36s20-29 27-45a190 190 0 008-25 164 164 0 005-27c1-18 0-37-4-55a193 193 0 00-17-50c18 14 35 30 49 48a195 195 0 0125 43 185 185 0 0112 42 139 139 0 010 15v2l-1 4-8 16a129 129 0 01-9 14c-11 14-24 25-38 36a365 365 0 01-35 24 348 348 0 01-41 20l-43 16q-24 9-49 15c-33 8-66 14-99 18a885 885 0 01-106 9 849 849 0 01-105-6l-29-5-32-7a472 472 0 01-58-20 349 349 0 01-39-19 334 334 0 01-34-24 286 286 0 01-49-48 269 269 0 01-32-55 260 260 0 01-10-28 232 232 0 01-7-31 236 236 0 010-57 220 220 0 0117-26 250 250 0 0119-21 223 223 0 0121-19c22-17 47-30 72-41 38-16 77-25 117-30q23-3 47-4zm-45 4h-2 2zm-108 2h-1 1zm-126 17l5-5a232 232 0 00-27 43 211 211 0 00-9 24 191 191 0 00-7 28l-1 4a184 184 0 00-8 18 149 149 0 00-8 24 177 177 0 00-3 28 182 182 0 004 53 132 132 0 005 15 191 191 0 007 27 225 225 0 0025 48c10 15 22 28 35 40a367 367 0 0072 52 377 377 0 0035 26 335 335 0 0049 26 446 446 0 0054 20 432 432 0 0056 12 583 583 0 0058 6 804 804 0 00170-9l42-3-27 9c-18 7-36 12-55 17a956 956 0 01-112 22l-20 2a1451 1451 0 01-206-49q-39-13-77-29a986 986 0 01-93-45l-11-6-12-19a302 302 0 01-16-33 337 337 0 01-13-37 309 309 0 01-8-40 342 342 0 01-3-41 301 301 0 013-40 333 333 0 0121-80 316 316 0 0119-36 356 356 0 0123-35 419 419 0 0133-37zm669-5v1h1l-1-1zm137 153a439 439 0 00-115-120l-25-18 17 9 26 17 24 17c18 14 35 30 49 48a229 229 0 0127 47c3 5 5 11 6 16l-9-16zm-413-126a620 620 0 0161 11 407 407 0 0161 20l27 13a198 198 0 0126 16l10 9a112 112 0 0110 11 118 118 0 0113 22l3 9a63 63 0 012 8 94 94 0 010 21 77 77 0 01-4 15 82 82 0 01-8 15 141 141 0 01-23 22 180 180 0 01-54 27l-20 6a391 391 0 01-43 8 501 501 0 01-65 3 529 529 0 01-67-4 525 525 0 01-55-11 393 393 0 01-51-16 172 172 0 01-19-10 162 162 0 01-15-10 103 103 0 01-16-16 62 62 0 01-6-11 78 78 0 01-5-16 71 71 0 010-14 76 76 0 014-16 125 125 0 0115-25 179 179 0 0130-28 205 205 0 0141-25 233 233 0 0126-9 224 224 0 0130-6 244 244 0 0125-2 185 185 0 0127 2 137 137 0 0130 7l19 13 5 4a5 5 0 107-6l-5-5-4-3a121 121 0 00-11-7c-8-5-17-8-26-10a170 170 0 00-26-4 201 201 0 00-30 0 254 254 0 00-28 4 219 219 0 00-29 7 202 202 0 00-70 40 160 160 0 00-20 20 128 128 0 00-14 22 114 114 0 00-5 11 60 60 0 00-4 15 78 78 0 001 24 65 65 0 0010 24c4 6 10 12 16 17a170 170 0 0021 16 157 157 0 0023 11l28 10q13 5 27 8l30 6a596 596 0 0059 8 540 540 0 0060 1 438 438 0 0059-6c19-4 38-8 56-15 17-6 33-14 47-24a150 150 0 0019-17 107 107 0 0017-22 72 72 0 008-22 94 94 0 000-27 88 88 0 00-2-12 80 80 0 00-4-12 118 118 0 00-14-25 124 124 0 00-17-18 164 164 0 00-22-16 259 259 0 00-48-24l-9-3a375 375 0 0155 18c12 4 23 10 33 16a251 251 0 0131 20l13 11a140 140 0 0113 14 160 160 0 0119 31 108 108 0 017 24 110 110 0 01-1 24 134 134 0 01-8 31 119 119 0 01-13 22 198 198 0 01-33 32 248 248 0 01-78 39l-29 8a561 561 0 01-60 12 644 644 0 01-166-1 633 633 0 01-65-12 439 439 0 01-64-21l-30-15a228 228 0 01-31-18 153 153 0 01-12-12 134 134 0 01-29-41 120 120 0 01-5-20 148 148 0 019-33 190 190 0 0122-37 229 229 0 0138-38 288 288 0 0130-20 310 310 0 0134-16 437 437 0 0152-18 451 451 0 0157-12l19-2a576 576 0 0178 5zm341 32h1-1zm-610 30zm-242 9l-1 2 1-2zm104 25v0zm824 30zm34 33l8 14-5 17a208 208 0 00-3-31zm-2 236a424 424 0 0074-82 357 357 0 0027-48 369 369 0 0021-53 303 303 0 0010-48q2 18 2 37a434 434 0 01-4 59 360 360 0 01-7 40 269 269 0 01-13 37 285 285 0 01-34 59 269 269 0 01-46 45 362 362 0 01-34 23 323 323 0 01-38 19 516 516 0 01-126 34c-23 3-47 5-70 6l-13 1 52-18 30-11 5-2a501 501 0 0052-22 416 416 0 0048-26 294 294 0 0033-25l31-25zM607 568a359 359 0 0019 58l4 9a218 218 0 01-17-32q-3-5-4-11l-1-3a181 181 0 01-1-21zm215 8zm-423 42l-7-28a254 254 0 0023 43 387 387 0 0034 44 378 378 0 0039 40l19 15 1 1a259 259 0 0030 45c12 14 25 26 39 37a405 405 0 0045 31c23 13 48 23 73 32a396 396 0 0048 19 437 437 0 0054 14 496 496 0 0059 8l47 1 61 5 94 1 44 4-62 10a957 957 0 01-223 2 647 647 0 01-77-15 574 574 0 01-74-25 530 530 0 01-114-68 493 493 0 01-86-84 426 426 0 01-53-91 361 361 0 01-14-41zm1106-26a182 182 0 019 35 191 191 0 01-1 46 201 201 0 01-12 46 193 193 0 01-24 39 297 297 0 01-48 49l-37 24a583 583 0 01-57 29 536 536 0 01-115 32l-43 7c-26 3-53 6-79 7l-42 2-9-1 48-10a797 797 0 00114-36c22-8 43-18 64-28a443 443 0 0055-17 399 399 0 0050-24 272 272 0 0044-30c13-11 25-25 35-40a164 164 0 0023-48 134 134 0 004-25v-10a318 318 0 0021-47zM447 646l1 1-1-1zm757 139q29-6 57-14l54-19a413 413 0 0050-23c16-9 31-20 45-31a233 233 0 0026-24 130 130 0 01-8 14l-14 16a196 196 0 01-17 15 303 303 0 01-25 17 233 233 0 01-28 15 482 482 0 01-102 29l-39 6-6 1 7-2zm171-15a356 356 0 0043-35 247 247 0 0031-35 204 204 0 01-15 23 214 214 0 01-14 16 176 176 0 01-18 16 294 294 0 01-33 22l-21 10 5-3 22-14zm-639-20a440 440 0 0047 20l54 18q29 8 57 13l60 8a1032 1032 0 00120 5l61-2 60-6a733 733 0 00114-23l24-8a491 491 0 01-120 45c-18 5-37 9-56 12l-60 1a898 898 0 01-109-8h-2 1a1026 1026 0 01-108-21q-27-6-52-15a784 784 0 01-88-37l-3-2zm-187 11l32 21a318 318 0 0024 29l3 4-17-13a265 265 0 01-42-41zm78 45l59 28a1096 1096 0 00112 40c35 11 71 20 107 27h-8l-44-5a784 784 0 01-148-34l-19-10a269 269 0 01-31-20 316 316 0 01-28-26zm284 28l-29-7a444 444 0 01-49-17l25 8c38 10 77 17 116 23l9 1-45-4-27-4zm-359 1h1-1zm891 39l-1 1 1-1zm-128 35h-2 2zm-328-84h1-1z" transform="translate(-370 -16)" fill="url(#a)"/></svg>