<svg xmlns="http://www.w3.org/2000/svg" viewBox="0 0 4697.5 1425.9"><g><g><path d="M1444.4 676.4a69 69 0 00-31.5-41l-16.3-6.9a68.9 68.9 0 00-36.5 0c-37 5.4-73.5 15.4-110 23.4-37.6 8.2-74.8 18.6-112.1 28-35 8.8-69.6 20-104.4 30.2-37 10.8-73.8 23-110.7 34.4l-5.9 1.9q9-104.1 16.6-208.4c32.4-9.4 64.8-18.7 97.4-27.5l122.7-33c16.4-4.4 33-8 49.3-12 25.8-6.2 52.4-10.8 77.5-19.5a64.7 64.7 0 0043.8-43.8 63.4 63.4 0 00-28.8-70.8 81 81 0 00-19.8-9.1 281.5 281.5 0 00-29.4-3.2 62.9 62.9 0 00-41.3 18.7l-20.1 5-52.7 14c-28.4 7.3-56.5 15.6-84.8 23.5q-52.7 14.7-105.2 30c2.9-47.3 5.6-94.6 7.8-142 3.1-66.5 4.5-133.2 6.2-199.7a68.5 68.5 0 10-137 0c-2.3 88-5.1 175.9-9.3 263.8-1.8 39.7-4.3 79.4-7.1 119-50.5 15.6-100.8 32-151 48.4q-43.1 14-86.1 28.5L579 321.8c2.8-42.3 5-84.6 7.5-127a68.3 68.3 0 00-17.1-45.3 57.4 57.4 0 00-65-26 79 79 0 00-35.7 21.8 166.5 166.5 0 00-27.6 44.7 213.7 213.7 0 00-13.7 35.5c-2.8 11-4.6 22.7-4.3 34a57.4 57.4 0 00.7 24.4 52.7 52.7 0 0018.7 27.1q-8.2 133-17 265.9l-66.4 23.3c-34.7 12.2-69 25.8-103.3 38.8-70.9 26.6-141.3 54.9-213.5 77.7A57.7 57.7 0 0073.1 828c62.6-19.8 123.8-43.6 185.4-66.2 53-19.3 105.7-39 158.8-57.8L404 903.2q-132.3 40-264.5 79.7A68.5 68.5 0 00176 1115q110-32.9 219.8-66.1l-1.4 30.6c-1.6 31.4-3.3 63-3.6 94.4a379.8 379.8 0 006.6 101.4 68.4 68.4 0 00132-36.4l-1.5-5.5c-2.5-39.6.7-80 2.1-119.5 1.3-35.7 3.3-71.4 5.1-107l192.1-58.2c11.8-3.5 23.5-7.2 35.2-10.8l-6 62.8c-5.4 58.3-11.5 116.7-16.4 175-2.8 35.1-5.8 70.3-8.5 105.4-1.3 15.8-2.3 31.6-3.3 47.4a130.5 130.5 0 002 41 69.1 69.1 0 0050.8 54 67.7 67.7 0 0076.4-31.1 65.6 65.6 0 006.7-51.1c.4-15.2 1.8-30.4 3-45.5l4.5-53.9c2.8-34.3 5.5-68.7 8.7-103l23.3-244.6c84.9-26.5 169.8-52.8 255.1-77.7 40.8-11.8 82.2-21 123.4-31.4 19.4-5 39.2-8.7 58.8-13 12-2.6 24-5.5 36-8a70 70 0 0014.4-2.2c1.8-.4 3.5-.8 5.2-1.4a69.3 69.3 0 0048-84.2zM776.3 789.8q-116.1 35.8-232.4 71l6.4-95.2q3.7-54.8 7.1-109.7 117.6-39.5 236.2-76-7.6 105-17.3 209.9z" fill="#fff"/><path d="M1286.7 398.4h-274.9v634.1h209.5c57.7 0 110-19.2 147.4-54a173.9 173.9 0 0056.1-128.4c0-39.2-10.8-73.3-32.1-101.6 59-33.8 96.5-95.3 96.5-160.7 0-52-19.3-99.6-54.3-134-37-36.2-88.3-55.4-148.2-55.4zm10.6 445.7c0 37.6-29.8 64.9-71 64.9h-87V776.2h82c46.2 0 76 26.6 76 68zm44.9-211.1c-14.5 12.9-36.5 19.7-63.6 19.7h-139.3V522h146.4c23.6 0 43.3 7 57 20.2 12.2 11.8 18.9 28 18.9 45.7 0 18.3-6.7 33.9-19.4 45.2zM1875.2 801.9a108 108 0 01-32.3 80.2A111.4 111.4 0 011765 912a110 110 0 01-77.8-31.4 109.3 109.3 0 01-32.3-78.7V398.4h-127.5v403.5c0 65.1 24.7 125.4 69.5 169.7 44.4 43.8 104 68 168.1 68s123.8-24.2 168.1-68a236.2 236.2 0 0069.6-169.7V398.4h-127.5zM2288.7 650.9l-121-252.5h-137.2l183.2 383.2v251h127.6V786.8l286.6-388.5h-156.8l-182.4 252.5zM2654.8 398.4h127.5v634.1h-127.5zM3215.8 796.9l-266.3-398.5h-121.7v634.1h125.5V629.8l270.3 402.7h117.7V398.4h-125.5v398.5zM3830 489.4c-60.4-58.7-143.8-91-234.7-91h-208.6v634h192.4c50 0 97-7.7 139.7-23 41.6-15.1 78.3-37 109-65.4a289.9 289.9 0 0070.6-100.6c16.6-39.2 25-82.2 25-128a312 312 0 00-93.4-226zm-36.2 226c0 54.1-19 102.7-53.2 137-36 35.7-86.2 54.6-145.4 54.6h-81V523.9h80c61.7 0 113 19.1 148.4 55.3 33.5 34.2 51.2 81.3 51.2 136.3zM3958.6 398.4h127.5v634.1h-127.5zM4554.6 776.2V652.7H4259V521.9h287.4V398.4h-415v634.1h346.7V909H4259V776.2h295.5zM4610.3 877.6c-45.4 0-83.7 36-83.7 78.6 0 20.2 9.3 40.2 25.5 55a87.7 87.7 0 0058.2 22.6c23 0 44.6-8 61.1-22.5s26-34.6 26-55c0-43.5-39-78.7-87.1-78.7z" fill="#2b2c42"/></g></g></svg>